<svg height="400" version="1.1" width="640" xmlns="http://www.w3.org/2000/svg" xmlns:xlink="http://www.w3.org/1999/xlink" style="overflow: hidden; position: relative;"><desc style="-webkit-tap-highlight-color: rgba(0, 0, 0, 0);">Created with Raphaël 2.3.0</desc><defs style="-webkit-tap-highlight-color: rgba(0, 0, 0, 0);"></defs><path fill="#FF2D00" stroke="none" d="M320,180L173.13738684765158,149.4815980421049A150,150,0,0,1,466.86261315234844,149.48159804210496Z" stroke-width="1" stroke-linejoin="round" style="-webkit-tap-highlight-color: rgba(0, 0, 0, 0); stroke-linejoin: round;"></path><path fill="#00FF13" stroke="none" d="M320,180L466.86261315234844,149.48159804210496A150,150,0,0,1,340.42499736443693,328.6028919054496Z" stroke-width="1" stroke-linejoin="round" style="-webkit-tap-highlight-color: rgba(0, 0, 0, 0); stroke-linejoin: round;"></path><path fill="#009BFF" stroke="none" d="M320,180L340.42499736443693,328.6028919054496A150,150,0,0,1,178.6608616821769,230.23194182564782Z" stroke-width="1" stroke-linejoin="round" style="-webkit-tap-highlight-color: rgba(0, 0, 0, 0); stroke-linejoin: round;"></path><path fill="#00FF87" stroke="none" d="M320,180L178.6608616821769,230.23194182564782A150,150,0,0,1,173.13738684765158,149.4815980421048Z" stroke-width="1" stroke-linejoin="round" style="-webkit-tap-highlight-color: rgba(0, 0, 0, 0); stroke-linejoin: round;"></path><path fill="#000000" stroke="none" d="M320,180L173.13738684765158,149.4815980421049A150,150,0,0,1,466.86261315234844,149.48159804210496Z" fill-opacity="0" style="-webkit-tap-highlight-color: rgba(0, 0, 0, 0); fill-opacity: 0;"></path><path fill="#000000" stroke="none" d="M320,180L466.86261315234844,149.48159804210496A150,150,0,0,1,340.42499736443693,328.6028919054496Z" fill-opacity="0" style="-webkit-tap-highlight-color: rgba(0, 0, 0, 0); fill-opacity: 0;"></path><path fill="#000000" stroke="none" d="M320,180L340.42499736443693,328.6028919054496A150,150,0,0,1,178.6608616821769,230.23194182564782Z" fill-opacity="0" style="-webkit-tap-highlight-color: rgba(0, 0, 0, 0); fill-opacity: 0;"></path><path fill="#000000" stroke="none" d="M320,180L178.6608616821769,230.23194182564782A150,150,0,0,1,173.13738684765158,149.4815980421048Z" fill-opacity="0" style="-webkit-tap-highlight-color: rgba(0, 0, 0, 0); fill-opacity: 0;"></path><circle cx="505" cy="190" r="5" fill="#3069bf" stroke="none" style="-webkit-tap-highlight-color: rgba(0, 0, 0, 0);" transform="matrix(1,0,0,1,0,-32.2188)"></circle><text x="520" y="190" text-anchor="start" font-family="&quot;Arial&quot;" font-size="10px" stroke="none" fill="#000000" style="-webkit-tap-highlight-color: rgba(0, 0, 0, 0); text-anchor: start; font: 12px Arial, sans-serif;" font="12px Arial, sans-serif" transform="matrix(1,0,0,1,0,-32.2188)"><tspan dy="4" style="-webkit-tap-highlight-color: rgba(0, 0, 0, 0);">50</tspan></text><circle cx="505" cy="206.8" r="5" fill="#a3bf30" stroke="none" style="-webkit-tap-highlight-color: rgba(0, 0, 0, 0);" transform="matrix(1,0,0,1,0,-32.2188)"></circle><text x="520" y="206.8" text-anchor="start" font-family="&quot;Arial&quot;" font-size="10px" stroke="none" fill="#000000" style="-webkit-tap-highlight-color: rgba(0, 0, 0, 0); text-anchor: start; font: 12px Arial, sans-serif;" font="12px Arial, sans-serif" transform="matrix(1,0,0,1,0,-32.2188)"><tspan dy="3.9953125000000114" style="-webkit-tap-highlight-color: rgba(0, 0, 0, 0);">30</tspan></text><circle cx="505" cy="223.61875" r="5" fill="#bf5b30" stroke="none" style="-webkit-tap-highlight-color: rgba(0, 0, 0, 0);" transform="matrix(1,0,0,1,0,-32.2188)"></circle><text x="520" y="223.61875" text-anchor="start" font-family="&quot;Arial&quot;" font-size="10px" stroke="none" fill="#000000" style="-webkit-tap-highlight-color: rgba(0, 0, 0, 0); text-anchor: start; font: 12px Arial, sans-serif;" font="12px Arial, sans-serif" transform="matrix(1,0,0,1,0,-32.2188)"><tspan dy="4.001562500000006" style="-webkit-tap-highlight-color: rgba(0, 0, 0, 0);">25</tspan></text><circle cx="505" cy="240.4375" r="5" fill="#bfa330" stroke="none" style="-webkit-tap-highlight-color: rgba(0, 0, 0, 0);" transform="matrix(1,0,0,1,0,-32.2188)"></circle><text x="520" y="240.4375" text-anchor="start" font-family="&quot;Arial&quot;" font-size="10px" stroke="none" fill="#000000" style="-webkit-tap-highlight-color: rgba(0, 0, 0, 0); text-anchor: start; font: 12px Arial, sans-serif;" font="12px Arial, sans-serif" transform="matrix(1,0,0,1,0,-32.2188)"><tspan dy="4" style="-webkit-tap-highlight-color: rgba(0, 0, 0, 0);">10</tspan></text></svg>